<?xml version="1.0" encoding="iso-8859-1"?>
<!-- Generator: Adobe Illustrator 18.0.0, SVG Export Plug-In . SVG Version: 6.00 Build 0)  -->
<!DOCTYPE svg PUBLIC "-//W3C//DTD SVG 1.1//EN" "http://www.w3.org/Graphics/SVG/1.1/DTD/svg11.dtd">
<svg xmlns="http://www.w3.org/2000/svg" xmlns:xlink="http://www.w3.org/1999/xlink" version="1.1" id="Capa_1" x="0px" y="0px" viewBox="0 0 458.771 458.771" style="enable-background:new 0 0 458.771 458.771;" xml:space="preserve" width="512px" height="512px">
<g id="XMLID_847_">
	<circle id="XMLID_848_" cx="101.442" cy="61.004" r="35.675" fill="#000000"/>
	<path id="XMLID_849_" d="M188.236,148.581c-0.112-22.349-18.385-40.531-40.734-40.531h-17.643l-21.338,55.747l5.031-23.699   c0.353-1.664,0.097-3.4-0.723-4.891l-6.909-12.565l6.142-11.171c0.426-0.775,0.411-1.717-0.039-2.478   c-0.45-0.761-1.268-1.228-2.152-1.228H93.013c-0.884,0-1.702,0.467-2.152,1.228c-0.45,0.761-0.465,1.703-0.039,2.478l6.142,11.171   l-6.934,12.612c-0.804,1.463-1.067,3.162-0.742,4.799l4.399,23.744L72.569,108.05H55.092c-22.349,0-40.622,18.182-40.735,40.531   l-0.635,126.459c-0.048,9.506,7.62,17.252,17.126,17.299c0.029,0,0.059,0,0.088,0c9.466,0,17.164-7.65,17.211-17.127l0.635-126.459   c0.01-1.833,1.5-3.312,3.333-3.307c1.832,0.005,3.315,1.492,3.315,3.324l0.008,289.343c0,11.408,9.248,20.656,20.656,20.656   s20.656-9.248,20.656-20.656V277.469c0-2.463,1.997-4.459,4.459-4.459s4.459,1.997,4.459,4.459v160.646   c0,11.408,9.248,20.656,20.656,20.656s20.656-9.248,20.656-20.656l-0.375-290.089c0-2,1.621-3.621,3.621-3.621   c2,0,3.621,1.621,3.621,3.621c0,0.233-0.012,0.475-0.037,0.728l0.635,126.459c0.047,9.478,7.744,17.127,17.211,17.127   c0.029,0,0.06,0,0.088,0c9.506-0.047,17.174-7.793,17.126-17.299L188.236,148.581z" fill="#000000"/>
	<circle id="XMLID_851_" cx="300.171" cy="61.004" r="35.675" fill="#000000"/>
	<path id="XMLID_856_" d="M438.881,4.012c-7.292-6.101-18.148-5.135-24.248,2.157l-86.726,103.659l-20.658,53.97l5.031-23.699   c0.353-1.664,0.097-3.4-0.723-4.891l-6.909-12.565l6.142-11.171c0.426-0.775,0.411-1.717-0.039-2.478   c-0.45-0.761-1.268-1.228-2.152-1.228h-16.858c-0.884,0-1.702,0.467-2.152,1.228s-0.465,1.703-0.039,2.478l6.142,11.171   l-6.934,12.612c-0.804,1.463-1.067,3.162-0.742,4.799l4.399,23.744l-20.072-53.065L184.861,6.169   c-6.1-7.291-16.955-8.257-24.248-2.157c-7.292,6.1-8.257,16.956-2.157,24.248l95.703,114.389l0.008,295.467   c0,11.408,9.248,20.656,20.656,20.656s20.656-9.248,20.656-20.656V277.469c0-2.463,1.997-4.459,4.459-4.459   s4.459,1.997,4.459,4.459v160.646c0,11.408,9.248,20.656,20.656,20.656s20.656-9.248,20.656-20.656l-0.375-295.467l95.703-114.389   C447.137,20.968,446.172,10.112,438.881,4.012z" fill="#000000"/>
</g>
<g>
</g>
<g>
</g>
<g>
</g>
<g>
</g>
<g>
</g>
<g>
</g>
<g>
</g>
<g>
</g>
<g>
</g>
<g>
</g>
<g>
</g>
<g>
</g>
<g>
</g>
<g>
</g>
<g>
</g>
</svg>
