<?xml version="1.0" encoding="iso-8859-1"?>
<!-- Generator: Adobe Illustrator 18.0.0, SVG Export Plug-In . SVG Version: 6.00 Build 0)  -->
<!DOCTYPE svg PUBLIC "-//W3C//DTD SVG 1.1//EN" "http://www.w3.org/Graphics/SVG/1.1/DTD/svg11.dtd">
<svg xmlns="http://www.w3.org/2000/svg" xmlns:xlink="http://www.w3.org/1999/xlink" version="1.1" id="Capa_1" x="0px" y="0px" viewBox="0 0 460 460" style="enable-background:new 0 0 460 460;" xml:space="preserve" width="512px" height="512px">
<g id="XMLID_445_">
	<circle id="XMLID_447_" cx="127.817" cy="38.067" r="37.388" fill="#000000"/>
	<circle id="XMLID_534_" cx="368.702" cy="38.067" r="37.388" fill="#000000"/>
	<path id="XMLID_835_" d="M459.665,134.235c-0.119-23.421-19.269-42.476-42.69-42.476H399.48l-22.982,60.042l5.365-25.271   c0.377-1.775,0.103-3.625-0.771-5.215l-7.367-13.399l6.55-11.912c0.454-0.826,0.438-1.831-0.041-2.642   c-0.48-0.812-1.353-1.309-2.295-1.309h-17.976c-0.943,0-1.815,0.498-2.295,1.309c-0.48,0.811-0.495,1.816-0.041,2.642l6.55,11.912   l-7.394,13.448c-0.858,1.56-1.138,3.372-0.791,5.117l4.691,25.32l-22.751-60.042c-5.541,0-8.386-0.299-12.487,1.458l-30.208,12.939   l14.919-31.993l3.118,6.13c2.67,5.249,9.089,7.341,14.339,4.672c5.25-2.67,7.341-9.089,4.672-14.339L302.55,12.161   c-2.671-5.251-9.092-7.338-14.34-4.671c-5.249,2.669-7.34,9.089-4.671,14.338l7.048,13.86c-2.264,1.716-4.16,3.986-5.445,6.739   l-42.567,91.281c-3.161,6.779-1.811,14.805,3.393,20.177c3.47,3.582,8.174,5.488,12.961,5.488c2.393,0,4.807-0.476,7.099-1.458   l54.453-23.323l0.008,303.082c0,11.956,9.692,21.648,21.648,21.648s21.648-9.692,21.648-21.648v-168.36   c0-2.581,2.092-4.674,4.674-4.674s4.674,2.093,4.674,4.674v168.36c0,11.956,9.692,21.648,21.648,21.648s21.648-9.692,21.648-21.648   c0-286.575-0.384-122.031-0.393-303.809c0-2.089,1.693-3.783,3.783-3.783c2.089,0,3.783,1.693,3.784,3.782   c0,0.179-0.005,0.364-0.016,0.554l0.335,66.625v63.598c0,9.963,8.077,18.04,18.039,18.04S460,274.603,460,264.64v-63.689   L459.665,134.235z" fill="#000000"/>
	<path id="XMLID_836_" d="M216.176,295.503h-5.175V279.92c4.851-3.277,8.113-9.071,8.113-15.28l0-63.689l-0.335-66.715   c-0.117-23.422-19.268-42.478-42.69-42.478h-17.278c-2.925,7.642-19.822,51.785-23.198,60.605l5.365-25.272   c0.377-1.775,0.103-3.625-0.771-5.215l-7.367-13.399l6.55-11.912c0.454-0.826,0.438-1.831-0.041-2.642   c-0.48-0.812-1.353-1.309-2.295-1.309h-17.976c-0.943,0-1.816,0.498-2.295,1.309c-0.48,0.812-0.496,1.816-0.041,2.642l6.549,11.912   l-7.394,13.449c-0.858,1.56-1.138,3.372-0.791,5.117l4.691,25.32c-2.624-6.729-20.611-54.554-22.971-60.605   c-11.326,0-5.266-1.542-42.475,14.396l14.919-31.994l3.118,6.132c2.67,5.25,9.09,7.34,14.339,4.671   c5.25-2.67,7.341-9.09,4.671-14.339L61.664,12.161c-2.67-5.25-9.089-7.341-14.339-4.671c-5.25,2.669-7.34,9.089-4.671,14.339   l7.048,13.858c-2.264,1.716-4.161,3.986-5.446,6.74L1.691,133.708c-3.161,6.779-1.811,14.805,3.393,20.177   c5.201,5.368,13.179,6.977,20.06,4.03l54.453-23.323l0.009,303.082c0,11.956,9.692,21.648,21.648,21.648   s21.648-9.692,21.648-21.648v-168.36c0-2.581,2.092-4.673,4.673-4.673c2.581,0,4.673,2.092,4.673,4.673v168.36   c0,11.956,9.692,21.648,21.648,21.648s21.648-9.692,21.648-21.648v-32.275c-8.566-3.958-14.527-12.626-14.527-22.666v-79.202   c0-10.039,5.961-18.707,14.527-22.665l-0.377-146.907c-0.005-2.083,1.679-3.776,3.762-3.781c2.083-0.005,3.776,1.679,3.781,3.762   c0,0.155-0.002,0.314-0.008,0.477l0.335,66.625v63.598c0,6.678,3.156,12.114,8.022,15.349v15.513h-5.083   c-4.434,0-8.029,3.595-8.029,8.029v79.202c0,4.434,3.595,8.029,8.029,8.029h30.202c4.434,0,8.029-3.595,8.029-8.029v-79.202   C224.205,299.097,220.61,295.503,216.176,295.503z" fill="#000000"/>
</g>
<g>
</g>
<g>
</g>
<g>
</g>
<g>
</g>
<g>
</g>
<g>
</g>
<g>
</g>
<g>
</g>
<g>
</g>
<g>
</g>
<g>
</g>
<g>
</g>
<g>
</g>
<g>
</g>
<g>
</g>
</svg>
