<?xml version="1.0" encoding="iso-8859-1"?>
<!-- Generator: Adobe Illustrator 19.0.0, SVG Export Plug-In . SVG Version: 6.00 Build 0)  -->
<svg xmlns="http://www.w3.org/2000/svg" xmlns:xlink="http://www.w3.org/1999/xlink" version="1.1" id="Capa_1" x="0px" y="0px" viewBox="0 0 480 480" style="enable-background:new 0 0 480 480;" xml:space="preserve" width="512px" height="512px">
<g>
	<g>
		<path d="M168,240h-16c-4.418,0-8,3.582-8,8s3.582,8,8,8h16c4.418,0,8-3.582,8-8S172.418,240,168,240z" fill="#000000"/>
	</g>
</g>
<g>
	<g>
		<path d="M168,112h-16c-4.418,0-8,3.582-8,8s3.582,8,8,8h16c4.418,0,8-3.582,8-8S172.418,112,168,112z" fill="#000000"/>
	</g>
</g>
<g>
	<g>
		<path d="M168,144h-16c-4.418,0-8,3.582-8,8s3.582,8,8,8h16c4.418,0,8-3.582,8-8S172.418,144,168,144z" fill="#000000"/>
	</g>
</g>
<g>
	<g>
		<path d="M168,176h-16c-4.418,0-8,3.582-8,8s3.582,8,8,8h16c4.418,0,8-3.582,8-8S172.418,176,168,176z" fill="#000000"/>
	</g>
</g>
<g>
	<g>
		<path d="M168,208h-16c-4.418,0-8,3.582-8,8s3.582,8,8,8h16c4.418,0,8-3.582,8-8S172.418,208,168,208z" fill="#000000"/>
	</g>
</g>
<g>
	<g>
		<path d="M216,240h-16c-4.418,0-8,3.582-8,8s3.582,8,8,8h16c4.418,0,8-3.582,8-8S220.418,240,216,240z" fill="#000000"/>
	</g>
</g>
<g>
	<g>
		<path d="M216,144h-16c-4.418,0-8,3.582-8,8s3.582,8,8,8h16c4.418,0,8-3.582,8-8S220.418,144,216,144z" fill="#000000"/>
	</g>
</g>
<g>
	<g>
		<path d="M216,176h-16c-4.418,0-8,3.582-8,8s3.582,8,8,8h16c4.418,0,8-3.582,8-8S220.418,176,216,176z" fill="#000000"/>
	</g>
</g>
<g>
	<g>
		<path d="M216,208h-16c-4.418,0-8,3.582-8,8s3.582,8,8,8h16c4.418,0,8-3.582,8-8S220.418,208,216,208z" fill="#000000"/>
	</g>
</g>
<g>
	<g>
		<path d="M312,144h-16c-4.418,0-8,3.582-8,8s3.582,8,8,8h16c4.418,0,8-3.582,8-8S316.418,144,312,144z" fill="#000000"/>
	</g>
</g>
<g>
	<g>
		<path d="M312,176h-16c-4.418,0-8,3.582-8,8s3.582,8,8,8h16c4.418,0,8-3.582,8-8S316.418,176,312,176z" fill="#000000"/>
	</g>
</g>
<g>
	<g>
		<path d="M312,208h-16c-4.418,0-8,3.582-8,8s3.582,8,8,8h16c4.418,0,8-3.582,8-8S316.418,208,312,208z" fill="#000000"/>
	</g>
</g>
<g>
	<g>
		<path d="M264,240h-16c-4.418,0-8,3.582-8,8s3.582,8,8,8h16c4.418,0,8-3.582,8-8S268.418,240,264,240z" fill="#000000"/>
	</g>
</g>
<g>
	<g>
		<path d="M360,240h-16c-4.418,0-8,3.582-8,8s3.582,8,8,8h16c4.418,0,8-3.582,8-8S364.418,240,360,240z" fill="#000000"/>
	</g>
</g>
<g>
	<g>
		<path d="M264,176h-16c-4.418,0-8,3.582-8,8s3.582,8,8,8h16c4.418,0,8-3.582,8-8S268.418,176,264,176z" fill="#000000"/>
	</g>
</g>
<g>
	<g>
		<path d="M264,208h-16c-4.418,0-8,3.582-8,8s3.582,8,8,8h16c4.418,0,8-3.582,8-8S268.418,208,264,208z" fill="#000000"/>
	</g>
</g>
<g>
	<g>
		<path d="M120,240h-16c-4.418,0-8,3.582-8,8s3.582,8,8,8h16c4.418,0,8-3.582,8-8S124.418,240,120,240z" fill="#000000"/>
	</g>
</g>
<g>
	<g>
		<path d="M120,208h-16c-4.418,0-8,3.582-8,8s3.582,8,8,8h16c4.418,0,8-3.582,8-8S124.418,208,120,208z" fill="#000000"/>
	</g>
</g>
<g>
	<g>
		<path d="M456,32H24C10.745,32,0,42.745,0,56v288c0,13.255,10.745,24,24,24h165.28l-19.2,64H128c-4.418,0-8,3.582-8,8s3.582,8,8,8    h224c4.418,0,8-3.582,8-8s-3.582-8-8-8h-42.08l-19.2-64H456c13.255,0,24-10.745,24-24V56C480,42.745,469.255,32,456,32z     M293.28,432H186.72l19.2-64H274L293.28,432z M464,288H280.64c-4.418,0-8,3.582-8,8s3.582,8,8,8H464v40c0,4.418-3.582,8-8,8H24    c-4.418,0-8-3.582-8-8v-40h184.64c4.418,0,8-3.582,8-8s-3.582-8-8-8H16V80h448V288z M464,64H16v-8c0-4.418,3.582-8,8-8h432    c4.418,0,8,3.582,8,8V64z" fill="#000000"/>
	</g>
</g>
<g>
	<g>
		<path d="M248,288h-15.36c-4.418,0-8,3.582-8,8s3.582,8,8,8H248c4.418,0,8-3.582,8-8S252.418,288,248,288z" fill="#000000"/>
	</g>
</g>
<g>
	<g>
		<path d="M312,240h-16c-4.418,0-8,3.582-8,8s3.582,8,8,8h16c4.418,0,8-3.582,8-8S316.418,240,312,240z" fill="#000000"/>
	</g>
</g>
<g>
</g>
<g>
</g>
<g>
</g>
<g>
</g>
<g>
</g>
<g>
</g>
<g>
</g>
<g>
</g>
<g>
</g>
<g>
</g>
<g>
</g>
<g>
</g>
<g>
</g>
<g>
</g>
<g>
</g>
</svg>
