<?xml version="1.0" encoding="iso-8859-1"?>
<!-- Generator: Adobe Illustrator 19.0.0, SVG Export Plug-In . SVG Version: 6.00 Build 0)  -->
<svg xmlns="http://www.w3.org/2000/svg" xmlns:xlink="http://www.w3.org/1999/xlink" version="1.1" id="Layer_1" x="0px" y="0px" viewBox="0 0 512.001 512.001" style="enable-background:new 0 0 512.001 512.001;" xml:space="preserve" width="512px" height="512px">
<g>
	<g>
		<g>
			<path d="M473.618,8.534H38.384c-21.163,0-38.383,17.22-38.383,38.391V324.25c0,0.006-0.001,0.011-0.001,0.017     s0.001,0.011,0.001,0.017v38.392c0,21.171,17.22,38.391,38.383,38.391h152.381c1.213,14.951-5.278,29.707-17.274,38.161     l-15.369,10.837c-1.241,0.863-2.244,1.954-2.991,3.184c-10.72,3.055-18.597,12.932-18.597,24.618c0,14.114,11.486,25.6,25.6,25.6     h187.733c14.114,0,25.6-11.486,25.6-25.6c0-11.686-7.877-21.564-18.598-24.618c-0.737-1.214-1.724-2.294-2.941-3.158     l-15.394-10.846c-11.998-8.455-18.502-23.214-17.284-38.178h152.369c21.163,0,38.383-17.22,38.383-38.391V46.925     C512.001,25.754,494.781,8.534,473.618,8.534z M38.384,25.6h435.234c11.75,0,21.316,9.566,21.316,21.325v268.809H17.068V46.925     C17.068,35.166,26.633,25.6,38.384,25.6z M349.867,486.4H162.133c-4.71,0-8.533-3.831-8.533-8.533s3.823-8.533,8.533-8.533h1.928     h183.876h1.929c4.71,0,8.533,3.831,8.533,8.533S354.577,486.4,349.867,486.4z M304.144,401.084     c-1.135,19.874,7.535,39.398,23.279,51.183H184.584c15.753-11.785,24.422-31.317,23.287-51.2L304.144,401.084z M473.618,384     H324.761H187.246H38.384c-11.75,0-21.316-9.566-21.316-21.325V332.8h477.867v29.875C494.934,374.435,485.368,384,473.618,384z" fill="#000000"/>
			<path d="M256,349.867c-4.719,0-8.533,3.823-8.533,8.533s3.814,8.533,8.533,8.533s8.533-3.823,8.533-8.533     S260.719,349.867,256,349.867z" fill="#000000"/>
			<path d="M145.064,256h34.133c4.719,0,8.533-3.823,8.533-8.533V153.6c0-4.71-3.814-8.533-8.533-8.533h-34.133     c-4.71,0-8.533,3.823-8.533,8.533v93.867C136.531,252.178,140.354,256,145.064,256z M153.597,162.134h17.067v76.8h-17.067     V162.134z" fill="#000000"/>
			<path d="M213.331,256h34.133c4.719,0,8.533-3.823,8.533-8.533v-153.6c0-4.71-3.814-8.533-8.533-8.533h-34.133     c-4.71,0-8.533,3.823-8.533,8.533v153.6C204.797,252.178,208.62,256,213.331,256z M221.864,102.4h17.067v136.533h-17.067V102.4z" fill="#000000"/>
			<path d="M281.597,256h34.133c4.719,0,8.533-3.823,8.533-8.533v-128c0-4.71-3.814-8.533-8.533-8.533h-34.133     c-4.71,0-8.533,3.823-8.533,8.533v128C273.064,252.178,276.887,256,281.597,256z M290.131,128h17.067v110.933h-17.067V128z" fill="#000000"/>
			<path d="M349.864,256h34.133c4.719,0,8.533-3.823,8.533-8.533V59.734c0-4.71-3.814-8.533-8.533-8.533h-34.133     c-4.71,0-8.533,3.823-8.533,8.533v187.733C341.331,252.178,345.154,256,349.864,256z M358.397,68.267h17.067v170.667h-17.067     V68.267z" fill="#000000"/>
			<path d="M170.667,273.067H153.6c-4.719,0-8.533,3.823-8.533,8.533s3.814,8.533,8.533,8.533h17.067     c4.719,0,8.533-3.823,8.533-8.533S175.386,273.067,170.667,273.067z" fill="#000000"/>
			<path d="M238.933,273.067h-17.067c-4.719,0-8.533,3.823-8.533,8.533s3.814,8.533,8.533,8.533h17.067     c4.719,0,8.533-3.823,8.533-8.533S243.652,273.067,238.933,273.067z" fill="#000000"/>
			<path d="M307.2,273.067h-17.067c-4.719,0-8.533,3.823-8.533,8.533s3.814,8.533,8.533,8.533H307.2     c4.719,0,8.533-3.823,8.533-8.533S311.919,273.067,307.2,273.067z" fill="#000000"/>
			<path d="M375.467,273.067H358.4c-4.719,0-8.533,3.823-8.533,8.533s3.814,8.533,8.533,8.533h17.067     c4.719,0,8.533-3.823,8.533-8.533S380.186,273.067,375.467,273.067z" fill="#000000"/>
		</g>
	</g>
</g>
<g>
</g>
<g>
</g>
<g>
</g>
<g>
</g>
<g>
</g>
<g>
</g>
<g>
</g>
<g>
</g>
<g>
</g>
<g>
</g>
<g>
</g>
<g>
</g>
<g>
</g>
<g>
</g>
<g>
</g>
</svg>
