<?xml version="1.0" encoding="iso-8859-1"?>
<!-- Generator: Adobe Illustrator 18.1.1, SVG Export Plug-In . SVG Version: 6.00 Build 0)  -->
<svg xmlns="http://www.w3.org/2000/svg" xmlns:xlink="http://www.w3.org/1999/xlink" version="1.1" id="Capa_1" x="0px" y="0px" viewBox="0 0 419.956 419.956" style="enable-background:new 0 0 419.956 419.956;" xml:space="preserve" width="512px" height="512px">
<g>
	<g>
		<path d="M418.112,380.449L405.2,307.924c-3.443-19.432-21.907-38.517-41.196-42.576l-76.208-16.086    c-3.443-4.062-6.996-7.314-10.851-9.883c-0.366-3.761-0.078-6.537,0.985-8.836c3.855-8.487,6.838-16.387,9.027-24.129    c5.06-2.19,7.852-6.394,8.963-8.107c1.792-2.698,3.301-5.617,4.554-8.613c3.443-8.091,4.982-16.053,6.647-24.478    c0.635-3.252,1.649-6.424,2.808-10.041l1.792-5.853c1.999-6.916,0.872-13.88-3.093-19.179c-0.777-1.014-1.649-1.982-2.617-2.857    c4.298-22.431,1.95-43.91-6.948-63.818c-11.564-25.842-30.076-42.482-55.014-49.398c-9.154-2.569-18.655-4.457-28.174-5.617    l-0.032-3.443l-2.999-0.14c-5.487-0.301-10.929-0.382-16.449-0.382l-6.06,0.032c-3.489,0.065-7.058,0.428-10.738,1.095L175.817,0    l-14.722,9.565c-2.886,1.808-5.743,3.631-8.471,5.617c-3.761,2.792-6.805,6.106-9.011,9.883    c-7.645,1.982-14.752,5.821-21.557,11.739c-0.968,0.842-1.824,1.73-2.983,3.11l-8.263,10.119l2.951,2.935    c-2.886,6.488-3.631,12.691-2.284,16.925c-3.981,18.243-3.346,36.882,1.982,58.503c-3.077,2.983-4.949,6.964-5.617,11.865    c-0.968,6.854-1.522,15.862,2.744,24.841c1.95,4.124,3.22,8.438,4.775,13.818l0.904,3.013c1.079,3.664,2.507,7.249,4.091,10.754    c1.348,2.902,3.093,5.646,5.315,8.263c1.808,2.141,3.855,3.839,6.077,5.076c2.3,8.25,5.504,16.053,9.582,23.271    c-0.094,3.871-0.253,7.693-0.382,11.564l-0.11,2.442c-2.744,1.762-5.092,3.777-7.265,5.633l-5.186,1.095    c-7.994-21.748-28.745-37.406-53.207-37.406c-31.362,0-56.854,25.492-56.854,56.854c0,7.249,1.49,14.103,3.965,20.478    c-3.68,5.617-6.424,11.69-7.534,17.909L1.844,380.409c-1.856,10.375,0.619,20.258,6.948,27.841    c6.313,7.567,15.61,11.707,26.143,11.707h350.134c10.534,0,19.83-4.188,26.143-11.707    C417.493,400.707,419.968,390.824,418.112,380.449z M140.205,264.979l3.045-0.745l-0.269-1.364    c2.744-2.381,5.902-4.331,8.74-5.947c0.444-0.301,0.888-0.586,1.762-1.302c2.617-1.364,3.981-3.427,4.14-7.709l0.191-4.457    c0.223-4.901,0.395-9.789,0.492-14.657c0.032-1.934-0.492-4.091-1.49-5.918c-5.186-9.581-8.597-18.988-10.897-30.108l-3.061,0.936    l2.983-1.157l-2.251-3.188l-3.22,1.982c-0.207,0-0.713-0.143-1.762-1.38c-1.159-1.348-2.109-2.824-2.76-4.282    c-1.27-2.792-2.426-5.617-3.284-8.551l-0.872-2.951c-1.603-5.393-3.188-10.961-5.727-16.322    c-2.316-4.869-1.934-10.437-1.27-15.244c0.253-1.921,0.382-2.886,5.584-3.317l3.903-0.334l-1.132-3.747    c-8.263-27.063-9.216-48.193-3.158-68.483l-2.015-0.745c-0.065-3.806,2.666-10.249,8.581-16.322l-1.159-1.649    c5.409-4.172,10.945-6.504,16.863-7.155c1.84-0.207,4.22-1.665,4.775-3.777c0.904-3.236,2.776-5.886,5.743-8.091    c2.251-1.649,4.584-3.126,6.932-4.616l1.079,1.555c6.916-2.65,13.199-4.062,19.147-4.282l1.775,2.394l3.126,0.065    c15.15,0.207,30.202,2.364,44.704,6.424c20.131,5.617,34.52,18.687,44.004,39.975c8.71,19.464,9.947,39.784,3.806,62.215    l-0.667,2.348l-0.541,2.983l2.886,0.952l2.841,0.159c1.001,0,2.381,0.237,3.22,1.315c0.729,0.985,0.855,2.459,0.334,4.22    l-1.649,5.458c-1.237,3.935-2.475,7.836-3.427,12.581c-1.412,7.185-2.728,13.977-5.458,20.417    c-0.872,2.015-1.856,4.03-3.061,5.853c-0.984,1.49-1.461,1.775-1.412,1.824c-0.143-0.032-0.729-0.175-2.41-1.302l-3.965-2.744    l-1.412,7.029c-1.966,9.345-5.283,19.037-10.152,29.742c-3.855,8.471-2.744,17.482-0.697,25.603l1.49,2.015l0.92,0.428    c2.569,1.27,5.076,3.093,7.868,5.821c1.412,1.315,2.808,2.666,4.03,4.22c0.317,0.395,0.651,0.777,1.173,1.332l-0.11,1.49    l6.98,1.474c-2.157,2.332-4.315,4.506-6.553,6.504c-4.457,4.013-9.517,7.725-14.991,11.072c-6.789,4.172-14.087,7.518-21.67,9.947    c-10.359,3.379-20.78,5.044-30.886,5.044c-11.898,0-23.701-2.125-35.074-6.313c-7.408-2.792-14.515-6.394-21.084-10.787    c-3.395-2.3-6.647-4.775-9.74-7.424c-2.776-2.394-5.487-5.06-8.25-8.075L140.205,264.979z M34.128,269.501    c0-22.59,18.386-40.959,40.992-40.959c16.847,0,31.362,10.249,37.643,24.809c2.141,4.949,3.346,10.407,3.346,16.148    c0,0.223-0.065,0.366-0.065,0.57c-0.334,22.318-18.528,40.419-40.927,40.419c-13.945,0-26.254-7.013-33.662-17.686    c-3.427-4.949-5.678-10.692-6.679-16.847C34.429,273.832,34.128,271.706,34.128,269.501z M398.094,397.342    c-3.029,3.631-7.677,5.617-13.086,5.617h-67.006v-38.517c0-4.68-3.79-8.519-8.503-8.519c-4.71,0-8.519,3.839-8.519,8.519v38.517    H118.901v-38.517c0-4.68-3.822-8.519-8.519-8.519c-4.71,0-8.503,3.839-8.503,8.519v38.517H34.857    c-5.409,0-10.058-1.982-13.086-5.617c-3.013-3.631-4.188-8.551-3.236-13.88l12.895-72.59c0.237-1.332,0.651-2.698,1.111-4.03    c10.423,11.865,25.509,19.513,42.547,19.513c26.334,0,48.319-18.1,54.759-42.401h0.016c5.52,5.092,11.373,9.582,17.417,13.372    c19.02,11.93,40.69,18.211,62.643,18.211c20.242,0,40.483-5.474,58.584-15.83c8.613-4.949,16.608-10.929,23.763-17.909    c4.078-3.981,7.599-7.884,10.77-11.914l57.424,12.134c12.643,2.666,25.683,16.148,27.951,28.823l12.896,72.59    C402.282,388.793,401.139,393.711,398.094,397.342z M51.228,285.253l-10.232-8.28l4.998-6.171l2.617-3.22l2.381-2.935l1.934,1.603    l2.109,1.681l11.645,9.501l19.053-18.37l1.364-1.332l11.564-11.104l5.504,5.678l2.3,2.364l3.204,3.33l-17.783,17.164    l-24.255,23.429L51.228,285.253z" fill="#000000"/>
	</g>
</g>
<g>
</g>
<g>
</g>
<g>
</g>
<g>
</g>
<g>
</g>
<g>
</g>
<g>
</g>
<g>
</g>
<g>
</g>
<g>
</g>
<g>
</g>
<g>
</g>
<g>
</g>
<g>
</g>
<g>
</g>
</svg>
