<?xml version="1.0" encoding="iso-8859-1"?>
<!-- Generator: Adobe Illustrator 16.0.0, SVG Export Plug-In . SVG Version: 6.00 Build 0)  -->
<!DOCTYPE svg PUBLIC "-//W3C//DTD SVG 1.1//EN" "http://www.w3.org/Graphics/SVG/1.1/DTD/svg11.dtd">
<svg xmlns="http://www.w3.org/2000/svg" xmlns:xlink="http://www.w3.org/1999/xlink" version="1.1" id="Capa_1" x="0px" y="0px" width="512px" height="512px" viewBox="0 0 24.576 24.576" style="enable-background:new 0 0 24.576 24.576;" xml:space="preserve">
<g>
	<path d="M24.211,22.374l-0.689-4.178c-0.185-1.121-1.196-2.195-2.307-2.441l-4.651-1.043c0.644-0.842,1.163-1.825,1.55-2.813   c0.688-0.237,1.382-0.84,1.59-1.631c0.278-1.052,0.012-1.994-0.638-2.41l0.019-1.51c0.045-3.63-2.69-6.3-6.507-6.347   c-3.816-0.047-6.615,2.554-6.66,6.185l-0.018,1.51C5.239,8.093,4.948,9.032,5.2,10.089c0.188,0.799,0.875,1.42,1.558,1.674   c0.355,0.994,0.846,1.99,1.463,2.848l-0.576,0.112c-0.479-1.418-1.806-2.449-3.384-2.449c-1.977,0-3.584,1.607-3.584,3.583   c0,0.688,0.205,1.326,0.543,1.873c-0.018,0.062-0.041,0.125-0.054,0.189l-0.793,4.16c-0.111,0.582,0.021,1.141,0.371,1.568   c0.35,0.429,0.871,0.671,1.465,0.68l20.112,0.248h0.026c0.588,0,1.104-0.23,1.462-0.65C24.163,23.507,24.309,22.954,24.211,22.374z    M1.675,15.855c0-1.424,1.159-2.584,2.584-2.584c1.093,0,2.023,0.685,2.4,1.646c0.017,0.041,0.025,0.084,0.04,0.127   c0.033,0.101,0.071,0.199,0.092,0.306c0.029,0.146,0.042,0.297,0.046,0.448c0,0.021,0.006,0.039,0.006,0.06   c0,0.136-0.02,0.268-0.04,0.396c-0.191,1.235-1.255,2.188-2.544,2.188c-0.797,0-1.502-0.368-1.977-0.938   c-0.104-0.123-0.193-0.256-0.272-0.396c-0.084-0.148-0.15-0.31-0.204-0.478C1.728,16.382,1.675,16.126,1.675,15.855z M7.817,15.604   l1.047-0.207c0.688,0.74,1.5,1.304,2.427,1.562l-0.14,0.123l0.772,0.726l-0.59,2.34l-3.513-4.09   c0.004-0.065,0.021-0.132,0.021-0.199C7.843,15.77,7.823,15.688,7.817,15.604z M13.319,20.267l-0.555-2.451l0.793-0.704   l-0.133-0.125c0.933-0.232,1.759-0.775,2.47-1.5l1.354,0.303L13.319,20.267z M7.479,10.931c-0.365,0.072-1.199-0.395-1.357-1.062   C5.96,9.188,6.13,8.558,6.501,8.458c0.109-0.026,0.223-0.004,0.334,0.06l0.029-2.32c0.041-3.28,2.588-5.284,5.699-5.245   c3.113,0.036,5.609,2.104,5.569,5.385l-0.027,2.319c0.112-0.059,0.229-0.079,0.336-0.049c0.368,0.106,0.521,0.744,0.344,1.418   c-0.174,0.658-1.013,1.104-1.375,1.029c-0.373,1.09-1.016,2.401-1.89,3.425c-0.114,0.134-0.231,0.261-0.354,0.384   c-0.131,0.132-0.267,0.254-0.405,0.368c-0.648,0.539-1.394,0.893-2.223,0.925c-0.055,0.002-0.107,0.011-0.162,0.011   c-0.062,0-0.119-0.013-0.18-0.018c-0.834-0.058-1.568-0.424-2.201-0.978c-0.137-0.118-0.27-0.243-0.397-0.379   C9.48,14.669,9.366,14.538,9.255,14.4C8.421,13.368,7.824,12.049,7.479,10.931z M22.331,23.675l-3.889-0.049l0.025-2.109   c0.003-0.248-0.195-0.453-0.443-0.455c-0.283-0.022-0.453,0.195-0.456,0.443l-0.026,2.11L7.006,23.483l0.026-2.109   c0.003-0.248-0.196-0.451-0.444-0.455c-0.257-0.006-0.453,0.196-0.456,0.444l-0.025,2.108l-3.888-0.048   c-0.322-0.004-0.6-0.127-0.778-0.348c-0.18-0.22-0.244-0.515-0.185-0.832l0.699-3.668c0.625,0.526,1.423,0.858,2.304,0.858   c1.515,0,2.805-0.944,3.328-2.272l4.438,5.164c0.085,0.1,0.209,0.155,0.34,0.157h0.002c0.13,0,0.253-0.057,0.338-0.153l5.544-6.32   l2.771,0.619c0.751,0.168,1.489,0.951,1.612,1.709l0.69,4.181c0.053,0.315-0.02,0.606-0.201,0.821   c-0.182,0.216-0.456,0.332-0.772,0.332v0.447L22.331,23.675z M2.357,16.686l-0.239-0.192l0.315-0.39l0.121-0.149l0.193-0.238   l0.089,0.072l0.166,0.135l0.22,0.181l0.414,0.336l0.103,0.082l0.144-0.138l0.599-0.577l0.546-0.524l0.053-0.052l0.675-0.648   l0.348,0.357l0.07,0.074l0.255,0.265l0.021,0.021l-0.155,0.15l-0.099,0.094l-0.499,0.481l-1.898,1.83l-1.087-0.883L2.357,16.686z" fill="#000000"/>
</g>
<g>
</g>
<g>
</g>
<g>
</g>
<g>
</g>
<g>
</g>
<g>
</g>
<g>
</g>
<g>
</g>
<g>
</g>
<g>
</g>
<g>
</g>
<g>
</g>
<g>
</g>
<g>
</g>
<g>
</g>
</svg>
