<?xml version="1.0" encoding="iso-8859-1"?>
<!-- Generator: Adobe Illustrator 19.0.0, SVG Export Plug-In . SVG Version: 6.00 Build 0)  -->
<svg xmlns="http://www.w3.org/2000/svg" xmlns:xlink="http://www.w3.org/1999/xlink" version="1.1" id="Layer_1" x="0px" y="0px" viewBox="0 0 512 512" style="enable-background:new 0 0 512 512;" xml:space="preserve" width="512px" height="512px">
<g>
	<g>
		<g>
			<path d="M448,309.333c-20.822,0-64.004,11.603-85.885,17.889c-2.902-30.612-42.124-41.448-82.656-49.681     c-18.5-3.75-32.26-10.385-45.573-16.802c-16.417-7.927-31.927-15.406-52.552-15.406c-23.625,0-45.139,4.828-57.285,8.171     c-3.212-11.169-12.328-20.174-24.413-22.587L12.76,213.542c-3.135-0.615-6.385,0.188-8.854,2.208C1.438,217.781,0,220.802,0,224     v170.667c0,5.896,4.771,10.667,10.667,10.667H77.5c13.165,0,24.384-8.382,29.212-20.147C130.587,396.569,241.055,448,288,448     c41.375,0,126.531-41.865,182.875-69.563c14.708-7.229,26.865-13.208,34.75-16.667C509.5,360.063,512,356.229,512,352     C512,326.875,485.688,309.333,448,309.333z M103.917,263.802L88.052,374.844C87.313,380.063,82.771,384,77.5,384H21.333V237.01     l74.115,14.823C101,252.948,104.719,258.198,103.917,263.802z M461.458,359.292C410.208,384.49,324.417,426.667,288,426.667     c-38.802,0-140.688-45.427-176.667-62.927c-0.043-0.021-0.09-0.013-0.133-0.034l12.557-87.898     c7.759-2.43,31.513-9.141,57.576-9.141c15.75,0,27.906,5.865,43.292,13.281c13.813,6.667,29.479,14.219,50.583,18.51     c46.354,9.396,66.125,19.031,66.125,32.208c0,2.604-0.792,4.208-2.823,5.719c-6.75,5.052-33.229,13.583-132.813-15.948     c-5.625-1.677-11.583,1.563-13.26,7.198c-1.677,5.646,1.552,11.583,7.198,13.26c49.125,14.563,86.698,21.823,113.323,21.823     c17.365,0,30.073-3.083,38.313-9.24c0.712-0.531,1.234-1.182,1.883-1.755c0.664-0.072,1.318,0.008,1.982-0.193     C374,345.729,427.438,330.667,448,330.667c17.396,0,35.698,5.292,41.094,15.208C481.646,349.375,472.219,354.01,461.458,359.292z     " fill="#000000"/>
			<path d="M394.667,256c52.938,0,96-43.063,96-96s-43.063-96-96-96s-96,43.063-96,96S341.729,256,394.667,256z M394.667,85.333     c41.167,0,74.667,33.5,74.667,74.667s-33.5,74.667-74.667,74.667S320,201.167,320,160S353.5,85.333,394.667,85.333z" fill="#000000"/>
			<path d="M378.104,137.542l5.896-2.948v68.073c0,5.896,4.771,10.667,10.667,10.667s10.667-4.771,10.667-10.667v-85.333     c0-3.698-1.917-7.125-5.063-9.073c-3.135-1.969-7.073-2.115-10.375-0.469l-21.333,10.667c-5.271,2.635-7.406,9.042-4.771,14.313     C366.427,138.042,372.844,140.146,378.104,137.542z" fill="#000000"/>
		</g>
	</g>
</g>
<g>
</g>
<g>
</g>
<g>
</g>
<g>
</g>
<g>
</g>
<g>
</g>
<g>
</g>
<g>
</g>
<g>
</g>
<g>
</g>
<g>
</g>
<g>
</g>
<g>
</g>
<g>
</g>
<g>
</g>
</svg>
