<?xml version="1.0" encoding="iso-8859-1"?>
<!-- Generator: Adobe Illustrator 19.0.0, SVG Export Plug-In . SVG Version: 6.00 Build 0)  -->
<svg xmlns="http://www.w3.org/2000/svg" xmlns:xlink="http://www.w3.org/1999/xlink" version="1.1" id="Capa_1" x="0px" y="0px" viewBox="0 0 491.87 491.87" style="enable-background:new 0 0 491.87 491.87;" xml:space="preserve" width="512px" height="512px">
<g>
	<path d="M480.47,0H11.4C5.616,0,0.935,4.681,0.935,10.465v377.416c0,5.784,4.681,10.465,10.465,10.465h168.59l-45.244,77.795   c-1.88,3.24-1.89,7.236-0.03,10.486c1.87,3.239,5.335,5.242,9.076,5.242h204.278c3.74,0,7.206-2.003,9.076-5.242   c1.86-3.25,1.85-7.246-0.03-10.486l-45.244-77.795h168.6c5.784,0,10.465-4.681,10.465-10.465V10.465   C490.935,4.681,486.254,0,480.47,0z M21.866,20.93h448.139v262.86H21.866V20.93z M329.877,470.939H161.983l42.219-72.593h83.457   L329.877,470.939z M470.004,377.416H21.866v-72.695h448.139V377.416z" fill="#000000"/>
	<path d="M374.948,31.447c-22.607,0-41.003,18.396-41.003,41.003c0,13.273,6.341,25.086,16.146,32.587l-40.238,87.206   c-2.855-0.631-5.816-0.975-8.857-0.975c-5.344,0-10.447,1.038-15.133,2.904l-53.519-61.041c5.039-6.813,8.025-15.233,8.025-24.34   c0-22.606-18.396-41.002-41.003-41.002c-22.617,0-41.013,18.396-41.013,41.002c0,9.009,2.926,17.343,7.868,24.117l-38.4,40.539   c-3.477-0.961-7.133-1.486-10.911-1.486c-22.617,0-41.013,18.396-41.013,41.002c0,22.618,18.396,41.014,41.013,41.014   c22.607,0,41.003-18.396,41.003-41.014c0-11.103-4.444-21.184-11.639-28.575l36.214-38.232c5.151,2.336,10.862,3.648,16.877,3.648   c5.927,0,11.558-1.275,16.65-3.548l52.972,60.417c-5.629,7.021-9.007,15.92-9.007,25.596c0,22.617,18.396,41.013,41.014,41.013   c22.606,0,41.002-18.396,41.002-41.013c0-12.048-5.226-22.898-13.529-30.407l40.965-88.783c1.805,0.244,3.643,0.381,5.514,0.381   c22.617,0,41.013-18.396,41.013-41.012C415.96,49.843,397.565,31.447,374.948,31.447z M116.912,233.048   c-11.078,0-20.082-9.004-20.082-20.083c0-11.068,9.003-20.071,20.082-20.071c11.069,0,20.073,9.003,20.073,20.071   C136.984,224.044,127.981,233.048,116.912,233.048z M179.285,108.792c0-11.068,9.003-20.072,20.082-20.072   c11.069,0,20.073,9.003,20.073,20.072c0,11.079-9.003,20.083-20.073,20.083C188.288,128.875,179.285,119.871,179.285,108.792z    M300.996,252.353c-11.079,0-20.083-9.003-20.083-20.082c0-11.068,9.004-20.072,20.083-20.072c11.068,0,20.071,9.004,20.071,20.072   C321.067,243.35,312.064,252.353,300.996,252.353z M374.948,92.532c-11.068,0-20.073-9.003-20.073-20.082   c0-11.068,9.004-20.073,20.073-20.073c11.079,0,20.082,9.004,20.082,20.073C395.03,83.529,386.026,92.532,374.948,92.532z" fill="#000000"/>
</g>
<g>
</g>
<g>
</g>
<g>
</g>
<g>
</g>
<g>
</g>
<g>
</g>
<g>
</g>
<g>
</g>
<g>
</g>
<g>
</g>
<g>
</g>
<g>
</g>
<g>
</g>
<g>
</g>
<g>
</g>
</svg>
