<?xml version="1.0" encoding="iso-8859-1"?>
<!-- Generator: Adobe Illustrator 19.0.0, SVG Export Plug-In . SVG Version: 6.00 Build 0)  -->
<svg xmlns="http://www.w3.org/2000/svg" xmlns:xlink="http://www.w3.org/1999/xlink" version="1.1" id="Layer_1" x="0px" y="0px" viewBox="0 0 512.001 512.001" style="enable-background:new 0 0 512.001 512.001;" xml:space="preserve" width="512px" height="512px">
<g>
	<g>
		<g>
			<path d="M438.68,283.13v-54.261c42.623-13.627,60.91-62.953,39.019-100.864c-22.027-38.144-73.824-46.674-106.87-16.647     l-46.987-27.133C333.335,40.488,299.778,0,256,0c-43.98,0-77.32,40.73-67.859,84.235l-46.969,27.123     c-32.997-29.988-84.816-21.542-106.87,16.647c-21.905,37.932-3.579,87.244,39.018,100.865v54.261     c-42.624,13.631-60.91,62.953-39.018,100.865c22.053,38.187,73.855,46.646,106.87,16.646l46.987,27.133     c-9.494,43.737,24.064,84.227,67.843,84.227c43.808,0,77.329-40.513,67.842-84.227l46.986-27.133     c33.023,30.015,84.833,21.516,106.871-16.647C499.602,346.064,481.278,296.751,438.68,283.13z M403.953,139.188     c13.006-7.51,29.62-3.058,37.134,9.957c7.494,12.977,3.026,29.635-9.957,37.134C399.792,204.375,373.057,156.999,403.953,139.188     z M256,42.276c14.987,0,27.178,12.198,27.178,27.192c0,15.21-12.395,27.179-27.178,27.179c-14.537,0-27.179-11.775-27.179-27.179     C228.822,54.474,241.013,42.276,256,42.276z M70.912,149.147c7.427-12.86,23.965-17.563,37.148-9.95     c31.398,18.1,3.658,64.899-27.189,47.083C67.866,178.77,63.393,162.167,70.912,149.147z M108.045,372.812     c-13.004,7.512-29.614,3.061-37.133-9.959c-7.511-13.004-3.061-29.614,9.957-37.133     C111.751,307.888,139.557,354.65,108.045,372.812z M256,469.724c-14.987,0-27.179-12.198-27.179-27.192     c0-15.21,12.398-27.179,27.179-27.179c14.722,0,27.178,11.913,27.178,27.179C283.178,457.526,270.987,469.724,256,469.724z      M349.696,364.027l-46.984,27.131c-26.399-23.921-66.698-24.217-93.423,0l-46.984-27.131     c7.615-35.219-12.825-70.044-46.709-80.908v-54.237c34.104-10.959,54.282-45.847,46.709-80.908l46.984-27.131     c26.64,24.152,66.886,24.031,93.423,0l46.984,27.131c-7.6,35.148,12.758,70.015,46.708,80.908v54.237     C361.901,294.209,342.222,329.366,349.696,364.027z M441.087,362.854c-7.46,12.922-24.027,17.528-37.147,9.949     c-31.141-17.949-3.882-65.025,27.189-47.083C444.114,333.219,448.581,349.877,441.087,362.854z" fill="#000000"/>
			<path d="M249.578,321.486l-47.08-27.182c-10.112-5.838-23.039-2.373-28.875,7.737c-5.837,10.11-2.373,23.038,7.737,28.875     l47.08,27.182c10.105,5.836,23.038,2.376,28.875-7.737C263.152,340.251,259.688,327.323,249.578,321.486z" fill="#000000"/>
			<path d="M330.631,181.074l-47.08-27.182c-10.111-5.838-23.039-2.374-28.875,7.737c-5.837,10.11-2.373,23.038,7.737,28.875     l47.08,27.182c10.101,5.834,23.033,2.38,28.875-7.737C344.206,199.839,340.742,186.911,330.631,181.074z" fill="#000000"/>
		</g>
	</g>
</g>
<g>
</g>
<g>
</g>
<g>
</g>
<g>
</g>
<g>
</g>
<g>
</g>
<g>
</g>
<g>
</g>
<g>
</g>
<g>
</g>
<g>
</g>
<g>
</g>
<g>
</g>
<g>
</g>
<g>
</g>
</svg>
