<?xml version="1.0" encoding="iso-8859-1"?>
<svg xmlns="http://www.w3.org/2000/svg" xmlns:xlink="http://www.w3.org/1999/xlink" version="1.1" viewBox="0 0 43 43" enable-background="new 0 0 43 43" width="512px" height="512px">
  <g>
    <g>
      <path d="m28.5,7v-2c0-2.761-2.239-5-5-5h-4c-2.761,0-5,2.239-5,5v2h-9v31c0,2.761 2.239,5 5,5h22c2.761,0 5-2.239 5-5v-31h-9zm-12-2c0-1.657 1.343-3 3-3h4c1.657,0 3,1.343 3,3v2h-10v-2zm19,33c0,1.657-1.343,3-3,3h-22c-1.657,0-3-1.343-3-3v-24h28v24zm0-26h-28v-3h28v3z" fill="#000000"/>
    </g>
  </g>
</svg>
