<?xml version="1.0" encoding="iso-8859-1"?>
<!-- Generator: Adobe Illustrator 19.0.0, SVG Export Plug-In . SVG Version: 6.00 Build 0)  -->
<svg xmlns="http://www.w3.org/2000/svg" xmlns:xlink="http://www.w3.org/1999/xlink" version="1.1" id="Layer_1" x="0px" y="0px" viewBox="0 0 512.796 512.796" style="enable-background:new 0 0 512.796 512.796;" xml:space="preserve" width="512px" height="512px">
<g>
	<g>
		<path d="M467.439,378.748C454.655,302.3,408.543,161.116,316.735,116.86c-8-3.872-17.536-0.496-21.36,7.456    c-3.84,7.968-0.496,17.536,7.456,21.36c80.176,38.656,122.08,172.8,133.04,238.352c4.528,26.928-2.176,53.376-18.384,72.496    c-13.056,15.424-30.592,24.272-48.144,24.272H143.471c-17.552,0-35.12-8.864-48.192-24.32    c-16.176-19.136-22.864-45.536-18.336-72.432c11.808-70.16,52.992-199.248,132.496-238.112    c7.936-3.872,11.216-13.472,7.344-21.408c-3.888-7.936-13.472-11.248-21.408-7.344c-85.248,41.68-134.08,166.944-150,261.552    c-6.096,36.192,3.184,72.064,25.472,98.4c19.152,22.672,45.616,35.664,72.624,35.664h225.888c26.96,0,53.408-12.976,72.544-35.6    C464.207,450.876,473.503,414.988,467.439,378.748z" fill="#000000"/>
	</g>
</g>
<g>
	<g>
		<path d="M334.511,6.956c-6.08-6.256-15.12-8.384-25.536-5.664c0,0-31.456,10.032-41.952,13.088    c-5.216,1.504-15.472,1.488-20.752-0.016c-10.656-3.024-42.384-13.088-43.2-13.344c-9.552-2.496-18.592-0.368-24.704,5.904    c-6.096,6.256-8.016,15.328-5.328,24.544l21.712,80.592c2.304,8.544,11.2,13.568,19.616,11.296    c8.544-2.304,13.6-11.088,11.296-19.616L207.375,35.9c10.272,3.232,23.808,7.44,30.112,9.216    c10.896,3.152,27.392,3.136,38.4-0.016c6.224-1.792,19.568-5.984,29.568-9.136l-18.272,67.776    c-2.304,8.544,2.752,17.312,11.296,19.616c1.392,0.368,2.784,0.544,4.176,0.544c7.04,0,13.504-4.704,15.44-11.824l21.632-80.288    C342.495,22.268,340.591,13.212,334.511,6.956z" fill="#000000"/>
	</g>
</g>
<g>
	<g>
		<path d="M304.415,112.796h-96c-8.848,0-16,7.152-16,16s7.152,16,16,16h96c8.848,0,16-7.152,16-16    C320.415,119.948,313.263,112.796,304.415,112.796z" fill="#000000"/>
	</g>
</g>
<g>
	<g>
		<path d="M272.287,304.796h-31.744c-8.736,0-15.84-7.168-15.84-16c0-8.832,7.104-16,15.84-16h63.872c8.848,0,16-7.152,16-16    s-7.152-16-16-16h-63.872c-26.368,0-47.84,21.536-47.84,48s21.472,48,47.84,48h31.744c8.736,0,15.84,7.184,15.84,16.032    c0,8.816-7.104,15.968-15.84,15.968h-63.872c-8.848,0-16,7.152-16,16c0,8.848,7.152,16,16,16h63.872    c26.384,0,47.84-21.52,47.84-47.968C320.127,326.348,298.655,304.796,272.287,304.796z" fill="#000000"/>
	</g>
</g>
<g>
	<g>
		<path d="M256.415,240.796c-8.848,0-16,7.152-16,16v128c0,8.848,7.152,16,16,16c8.848,0,16-7.152,16-16v-128    C272.415,247.948,265.263,240.796,256.415,240.796z" fill="#000000"/>
	</g>
</g>
<g>
</g>
<g>
</g>
<g>
</g>
<g>
</g>
<g>
</g>
<g>
</g>
<g>
</g>
<g>
</g>
<g>
</g>
<g>
</g>
<g>
</g>
<g>
</g>
<g>
</g>
<g>
</g>
<g>
</g>
</svg>
